<svg width="56" height="57" viewBox="0 0 56 57" fill="none" xmlns="http://www.w3.org/2000/svg">
<g id="SunHorizon">
<path id="Vector" d="M52.4985 34.1738H43.6501C43.7147 33.5927 43.7476 33.0085 43.7485 32.4238C43.7485 28.2469 42.0892 24.241 39.1355 21.2874C36.1818 18.3338 32.1757 16.6746 27.9985 16.6746C23.8214 16.6746 19.8153 18.3338 16.8616 21.2874C13.9079 24.241 12.2485 28.2469 12.2485 32.4238C12.2495 33.0085 12.2824 33.5927 12.347 34.1738H3.49854C3.03441 34.1738 2.58929 34.3581 2.2611 34.6863C1.93291 35.0145 1.74854 35.4596 1.74854 35.9237C1.74854 36.3878 1.93291 36.8329 2.2611 37.1611C2.58929 37.4892 3.03441 37.6736 3.49854 37.6736H52.4985C52.9627 37.6736 53.4078 37.4892 53.736 37.1611C54.0642 36.8329 54.2485 36.3878 54.2485 35.9237C54.2485 35.4596 54.0642 35.0145 53.736 34.6863C53.4078 34.3581 52.9627 34.1738 52.4985 34.1738ZM15.7485 32.4238C15.7453 30.7393 16.0896 29.0723 16.7598 27.5268C17.4301 25.9814 18.4119 24.5908 19.6439 23.442C20.8759 22.2931 22.3316 21.4107 23.9201 20.8499C25.5086 20.289 27.1956 20.0618 28.8759 20.1825C30.5561 20.3031 32.1935 20.769 33.6855 21.5511C35.1775 22.3331 36.4923 23.4144 37.5475 24.7275C38.6027 26.0406 39.3757 27.5572 39.8183 29.1825C40.2608 30.8079 40.3633 32.507 40.1195 34.1738H15.8776C15.7929 33.5943 15.7498 33.0095 15.7485 32.4238ZM47.2485 44.6733C47.2485 45.1374 47.0642 45.5825 46.736 45.9107C46.4078 46.2388 45.9627 46.4232 45.4985 46.4232H10.4985C10.0344 46.4232 9.58929 46.2388 9.2611 45.9107C8.93291 45.5825 8.74854 45.1374 8.74854 44.6733C8.74854 44.2092 8.93291 43.7641 9.2611 43.4359C9.58929 43.1077 10.0344 42.9234 10.4985 42.9234H45.4985C45.9627 42.9234 46.4078 43.1077 46.736 43.4359C47.0642 43.7641 47.2485 44.2092 47.2485 44.6733ZM15.9323 10.458C15.7246 10.0426 15.6904 9.56172 15.8373 9.12114C15.9841 8.68057 16.3 8.31638 16.7154 8.10869C17.1308 7.901 17.6117 7.86683 18.0523 8.01369C18.4929 8.16055 18.8571 8.4764 19.0648 8.89178L20.8148 12.3916C20.9176 12.5973 20.9789 12.8212 20.9953 13.0506C21.0116 13.28 20.9825 13.5103 20.9098 13.7284C20.8371 13.9466 20.7221 14.1483 20.5714 14.322C20.4208 14.4957 20.2373 14.6381 20.0317 14.7409C19.826 14.8437 19.6021 14.905 19.3727 14.9214C19.1433 14.9377 18.9129 14.9086 18.6948 14.8359C18.4766 14.7632 18.2749 14.6482 18.1012 14.4975C17.9275 14.3469 17.7851 14.1635 17.6823 13.9578L15.9323 10.458ZM3.68229 21.1412C3.78521 20.9356 3.92763 20.7523 4.10143 20.6018C4.27522 20.4513 4.47697 20.3365 4.69515 20.264C4.91333 20.1915 5.14367 20.1626 5.37299 20.1792C5.60232 20.1957 5.82614 20.2573 6.03166 20.3603L9.53166 22.1102C9.94677 22.3179 10.2624 22.682 10.409 23.1224C10.5557 23.5627 10.5214 24.0433 10.3137 24.4584C10.106 24.8735 9.7419 25.1891 9.30152 25.3357C8.86113 25.4824 8.38052 25.4481 7.96541 25.2404L4.46541 23.4905C4.25962 23.3878 4.07611 23.2455 3.92535 23.0718C3.7746 22.8981 3.65957 22.6964 3.58684 22.4782C3.5141 22.26 3.4851 22.0296 3.50147 21.8002C3.51785 21.5708 3.57929 21.3469 3.68229 21.1412ZM45.6823 24.4573C45.475 24.0422 45.441 23.5618 45.5879 23.1216C45.7347 22.6815 46.0504 22.3177 46.4654 22.1102L49.9654 20.3603C50.1709 20.2575 50.3947 20.1961 50.624 20.1798C50.8532 20.1634 51.0835 20.1924 51.3015 20.265C51.5196 20.3376 51.7212 20.4525 51.8949 20.603C52.0685 20.7535 52.2108 20.9368 52.3137 21.1423C52.4165 21.3479 52.4779 21.5716 52.4942 21.8009C52.5106 22.0301 52.4816 22.2603 52.409 22.4784C52.3364 22.6964 52.2215 22.898 52.071 23.0717C51.9205 23.2453 51.7372 23.3877 51.5317 23.4905L48.0317 25.2404C47.826 25.3434 47.6021 25.4048 47.3727 25.4212C47.1432 25.4376 46.9128 25.4086 46.6946 25.3359C46.4764 25.2631 46.2747 25.1481 46.101 24.9974C45.9273 24.8466 45.785 24.6631 45.6823 24.4573ZM35.1823 12.3916L36.9323 8.89178C37.14 8.4764 37.5042 8.16055 37.9448 8.01369C38.3854 7.86683 38.8663 7.901 39.2817 8.10869C39.6971 8.31638 40.0129 8.68057 40.1598 9.12114C40.3067 9.56172 40.2725 10.0426 40.0648 10.458L38.3148 13.9578C38.1071 14.3732 37.7429 14.689 37.3023 14.8359C36.8617 14.9828 36.3808 14.9486 35.9654 14.7409C35.55 14.5332 35.2341 14.169 35.0873 13.7284C34.9404 13.2879 34.9746 12.807 35.1823 12.3916Z" fill="#FCBD2B"/>
</g>
</svg>
